<svg xmlns="http://www.w3.org/2000/svg" width="1360" height="80" fill="none"><rect width="1360" height="80" fill="#286897" rx="12"/><mask id="a" width="1360" height="80" x="0" y="0" maskUnits="userSpaceOnUse" style="mask-type:alpha"><rect width="1360" height="80" fill="#286897" rx="12"/></mask><g mask="url(#a)"><circle cx="1344" cy="20" r="30" fill="#FFF8BA"/><path fill="#1F4F72" fill-rule="evenodd" d="M1238.22 52.01c3.39-23.75 23.82-42.01 48.51-42.01 16.08 0 30.36 7.752 39.29 19.724a40.078 40.078 0 0 1 12.25-1.906c22.14 0 40.09 17.95 40.09 40.091 0 22.142-17.95 40.091-40.09 40.091H1235.18v-.258C1221.52 105.88 1211 94.169 1211 80c0-15.204 12.12-27.577 27.22-27.99Z" clip-rule="evenodd"/></g></svg>