<svg xmlns="http://www.w3.org/2000/svg" width="1360" height="80" fill="none"><rect width="1360" height="80" fill="#286897" rx="12"/><mask id="a" width="1360" height="80" x="0" y="0" maskUnits="userSpaceOnUse" style="mask-type:alpha"><rect width="1360" height="80" fill="#286897" rx="12"/></mask><g mask="url(#a)"><g filter="url(#b)"><path fill="#558CB4" fill-opacity=".6" fill-rule="evenodd" d="M1243.22.01c3.39-23.75 23.82-42.01 48.51-42.01 16.08 0 30.36 7.752 39.29 19.724a40.078 40.078 0 0 1 12.25-1.906c22.14 0 40.09 17.95 40.09 40.091 0 22.142-17.95 40.091-40.09 40.091H1240.18v-.258C1226.52 53.88 1216 42.169 1216 28c0-15.204 12.12-27.577 27.22-27.99Z" clip-rule="evenodd"/></g><g filter="url(#c)"><path fill="#558CB4" fill-opacity=".6" fill-rule="evenodd" d="M1192.22 54.01c3.39-23.75 23.82-42.01 48.51-42.01 16.08 0 30.36 7.752 39.29 19.724a40.078 40.078 0 0 1 12.25-1.906c22.14 0 40.09 17.95 40.09 40.091 0 22.142-17.95 40.091-40.09 40.091H1189.18v-.258C1175.52 107.88 1165 96.169 1165 82c0-15.204 12.12-27.577 27.22-27.99Z" clip-rule="evenodd"/></g></g><defs><filter id="b" width="175.364" height="106" x="1212" y="-46" color-interpolation-filters="sRGB" filterUnits="userSpaceOnUse"><feFlood flood-opacity="0" result="BackgroundImageFix"/><feBlend in="SourceGraphic" in2="BackgroundImageFix" result="shape"/><feGaussianBlur result="effect1_foregroundBlur_568_289" stdDeviation="2"/></filter><filter id="c" width="175.364" height="106" x="1161" y="8" color-interpolation-filters="sRGB" filterUnits="userSpaceOnUse"><feFlood flood-opacity="0" result="BackgroundImageFix"/><feBlend in="SourceGraphic" in2="BackgroundImageFix" result="shape"/><feGaussianBlur result="effect1_foregroundBlur_568_289" stdDeviation="2"/></filter></defs></svg>