<svg xmlns="http://www.w3.org/2000/svg" width="1360" height="80" fill="none"><rect width="1360" height="80" fill="#286897" rx="12"/><mask id="a" width="1360" height="80" x="0" y="0" maskUnits="userSpaceOnUse" style="mask-type:alpha"><rect width="1360" height="80" fill="#286897" rx="12"/></mask><g mask="url(#a)"><path stroke="url(#b)" stroke-linecap="round" stroke-opacity=".3" stroke-width="2" d="m1219.5 59.5-10.5 16"/><path stroke="url(#c)" stroke-linecap="round" stroke-opacity=".3" stroke-width="2" d="m1247 49-10.5 16"/><path stroke="url(#d)" stroke-linecap="round" stroke-opacity=".3" stroke-width="2" d="m1266 60-10.5 16"/><path stroke="url(#e)" stroke-linecap="round" stroke-opacity=".3" stroke-width="2" d="m1294 49-10.5 16"/><path stroke="url(#f)" stroke-linecap="round" stroke-opacity=".3" stroke-width="2" d="m1318 61-10.5 16"/><path stroke="url(#g)" stroke-linecap="round" stroke-opacity=".3" stroke-width="2" d="m1346 48-10.5 16"/><path fill="#1F4F72" fill-rule="evenodd" d="M1238.22-15.99c3.39-23.75 23.82-42.01 48.51-42.01 16.08 0 30.36 7.752 39.29 19.724a40.078 40.078 0 0 1 12.25-1.906c22.14 0 40.09 17.95 40.09 40.091 0 22.142-17.95 40.091-40.09 40.091H1235.18v-.258C1221.52 37.88 1211 26.169 1211 12c0-15.204 12.12-27.577 27.22-27.99Z" clip-rule="evenodd"/></g><defs><linearGradient id="b" x1="1214.25" x2="1214.25" y1="59.5" y2="75.5" gradientUnits="userSpaceOnUse"><stop stop-color="#fff" stop-opacity="0"/><stop offset=".896" stop-color="#fff"/></linearGradient><linearGradient id="c" x1="1241.75" x2="1241.75" y1="49" y2="65" gradientUnits="userSpaceOnUse"><stop stop-color="#fff" stop-opacity="0"/><stop offset=".896" stop-color="#fff"/></linearGradient><linearGradient id="d" x1="1260.75" x2="1260.75" y1="60" y2="76" gradientUnits="userSpaceOnUse"><stop stop-color="#fff" stop-opacity="0"/><stop offset=".896" stop-color="#fff"/></linearGradient><linearGradient id="e" x1="1288.75" x2="1288.75" y1="49" y2="65" gradientUnits="userSpaceOnUse"><stop stop-color="#fff" stop-opacity="0"/><stop offset=".896" stop-color="#fff"/></linearGradient><linearGradient id="f" x1="1312.75" x2="1312.75" y1="61" y2="77" gradientUnits="userSpaceOnUse"><stop stop-color="#fff" stop-opacity="0"/><stop offset=".896" stop-color="#fff"/></linearGradient><linearGradient id="g" x1="1340.75" x2="1340.75" y1="48" y2="64" gradientUnits="userSpaceOnUse"><stop stop-color="#fff" stop-opacity="0"/><stop offset=".896" stop-color="#fff"/></linearGradient></defs></svg>